PathFileType	4	(X/Y/Z)	E:\Qualisys_Data\Carbon_Farble_Plate\Data\Amateur_Runner\S2\T3\S2T3V23_c3d.trc
DataRate	CameraRate	NumFrames	NumMarkers	Units	OrigDataRate	OrigDataStartFrame	OrigNumFrames
200.000000	200.000000	4	39	mm	200.000000	277	317
Frame#	Time	LSHO			RSHO			LICST			RICST			LASIS			LHEEL			RASIS			LTROC			RTROC			SACR			LTH1			LSK4			LTH2			LTH3			RHM5			LSK2			LTH4			RTH1			LTOE			RTH2			RTH3			RTH4			LLEP			RLEP			LSK1			LSK3			RSK1			LHM5			RSK2			LFT1			RSK3			RSK4			LLME			RLME			RTOE			RHEEL			RFT1			RFT2			LFT2			
		X1	Y1	Z1	X2	Y2	Z2	X3	Y3	Z3	X4	Y4	Z4	X5	Y5	Z5	X6	Y6	Z6	X7	Y7	Z7	X8	Y8	Z8	X9	Y9	Z9	X10	Y10	Z10	X11	Y11	Z11	X12	Y12	Z12	X13	Y13	Z13	X14	Y14	Z14	X15	Y15	Z15	X16	Y16	Z16	X17	Y17	Z17	X18	Y18	Z18	X19	Y19	Z19	X20	Y20	Z20	X21	Y21	Z21	X22	Y22	Z22	X23	Y23	Z23	X24	Y24	Z24	X25	Y25	Z25	X26	Y26	Z26	X27	Y27	Z27	X28	Y28	Z28	X29	Y29	Z29	X30	Y30	Z30	X31	Y31	Z31	X32	Y32	Z32	X33	Y33	Z33	X34	Y34	Z34	X35	Y35	Z35	X36	Y36	Z36	X37	Y37	Z37	X38	Y38	Z38	X39	Y39	Z39	

278	1.385	2279.138427734375	1463.4873046875	-463.9248962402344	2246.79931640625	1464.194946289062	-154.4304656982422	2238.11181640625	1002.259826660156	-436.9478759765625	2249.938720703125	1010.97705078125	-136.5281524658203	2288.064697265625	952.7322387695312	-422.8399353027344	1798.93017578125	215.0818023681641	-312.0675964355469	2309.5361328125	967.4219360351562	-167.3424072265625	2145.822021484375	894.2716674804688	-426.5927429199219	2191.2001953125	906.4048461914062	-113.5773315429688	2147.98828125	1043.444946289062	-290.3324584960938	2202.61962890625	637.5591430664062	-432.5191955566406	1924.153930664062	355.0607299804688	-401.141845703125	2122.1884765625	662.6959838867188	-437.3511657714844	2170.042236328125	541.9105834960938	-408.8661193847656	2269.043701171875	181.2579650878906	-129.6980743408203	1981.7958984375	434.7630920410156	-420.0898132324219	2089.642333984375	570.4884033203125	-411.0035095214844	2449.664306640625	729.130126953125	-133.8448181152344	1969.1953125	50.09358978271484	-319.6979064941406	2383.5537109375	690.7687377929688	-119.2325897216797	2497.406982421875	640.964111328125	-153.2129974365234	2426.700439453125	603.376708984375	-139.6381225585938	2105.9541015625	513.6002197265625	-412.4905700683594	2460.94287109375	587.5839233398438	-142.7267913818359	2046.005737304688	388.5157165527344	-415.6915283203125	1987.14111328125	307.6243591308594	-402.5589294433594	2426.185302734375	476.2598571777344	-140.9796295166016	1908.281982421875	65.91605377197266	-380.0486450195312	2368.114013671875	531.4395751953125	-135.9296112060547	1789.388061523438	190.3614959716797	-279.4794921875	2355.99462890625	402.1686401367188	-146.2646331787109	2300.1396484375	458.8239440917969	-142.6167144775391	1857.6806640625	182.5091552734375	-367.8368530273438	2200.7099609375	292.3411865234375	-163.9498901367188	2330.1630859375	148.791015625	-185.454345703125	2141.930419921875	313.4702758789062	-222.7197570800781	2137.03955078125	283.9706420898438	-251.2917327880859	2123.197265625	294.907958984375	-202.8440093994141	1783.708740234375	185.6946105957031	-334.085205078125
279	1.39	2298.8837890625	1467.961059570312	-462.8431091308594	2264.64306640625	1467.96044921875	-154.7006378173828	2259.675048828125	1006.089660644531	-437.281494140625	2269.859619140625	1015.186889648438	-136.9453887939453	2311.764892578125	956.5632934570312	-422.7388610839844	1814.509033203125	226.9426422119141	-316.0429992675781	2329.460693359375	971.436767578125	-167.4667510986328	2166.3349609375	899.6176147460938	-427.6465759277344	2212.013916015625	910.8062133789062	-113.2843856811523	2168.459716796875	1046.994384765625	-290.7069396972656	2217.75341796875	642.1349487304688	-433.3769836425781	1935.900146484375	362.4955749511719	-402.7993774414062	2137.773193359375	669.4940795898438	-438.798828125	2182.78662109375	547.1666870117188	-410.0071105957031	2308.142333984375	172.9115753173828	-131.5120086669922	1993.364868164062	442.7682800292969	-420.9913024902344	2103.3046875	577.8577270507812	-411.8014221191406	2470.93017578125	733.1939086914062	-134.3975067138672	1973.8544921875	48.5233268737793	-320.9039001464844	2404.398193359375	695.230224609375	-119.7963333129883	2518.072265625	644.670654296875	-153.5859680175781	2447.451416015625	608.2350463867188	-139.6966705322266	2117.873046875	520.9783935546875	-413.1463317871094	2480.823486328125	591.2466430664062	-143.8852996826172	2057.35986328125	395.9874877929688	-417.556640625	1998.573608398438	315.1418151855469	-405.116455078125	2451.0693359375	477.3196105957031	-141.1570434570312	1914.829956054688	68.29566192626953	-381.5269470214844	2389.870361328125	529.5059814453125	-134.4616241455078	1803.343994140625	202.8100128173828	-283.0107727050781	2384.803466796875	399.267822265625	-146.8496551513672	2325.82373046875	453.5078125	-142.2314147949219	1869.921875	189.0644836425781	-370.9780883789062	2234.88134765625	282.0605163574219	-164.2103729248047	2373.478515625	146.9717102050781	-186.6029357910156	2175.090087890625	299.7647399902344	-222.7220916748047	2171.94921875	269.9412231445312	-251.4997863769531	2157.948974609375	279.7561950683594	-203.4690246582031	1796.891967773438	198.5764465332031	-337.5946350097656
280	1.395	2319.376220703125	1471.951416015625	-461.4078979492188	2283.009521484375	1471.528076171875	-154.4865112304688	2277.698974609375	1009.765319824219	-436.9864807128906	2290.005126953125	1019.414733886719	-137.2638397216797	2332.61083984375	959.609375	-423.1408081054688	1830.885864257812	237.8667907714844	-320.0407104492188	2349.29443359375	975.0729370117188	-167.4920501708984	2186.7548828125	905.1307983398438	-428.7765197753906	2232.529296875	914.2296142578124	-113.878547668457	2188.752685546875	1050.56298828125	-291.8186950683594	2232.870361328125	647.2120361328125	-434.4479064941406	1948.01123046875	370.0211486816406	-404.3734436035156	2153.446533203125	675.862060546875	-440.2189636230469	2195.941650390625	552.939208984375	-410.8838806152344	2348.86328125	166.8232116699219	-132.3920288085938	2005.489868164062	450.3927307128906	-421.7451782226562	2117.017822265625	585.1281127929688	-412.107421875	2491.8388671875	736.7401733398438	-135.0936737060547	1979.103149414062	47.52887344360352	-322.2468872070312	2425.15771484375	698.8480224609375	-120.3682250976562	2537.8525390625	647.8865966796875	-153.795654296875	2467.020263671875	611.98486328125	-140.3011016845703	2130.24462890625	527.755615234375	-414.0466613769531	2500.7138671875	594.5805053710938	-143.9457397460938	2069.668212890625	404.07080078125	-418.8653869628906	2011.028198242188	322.5075378417969	-407.375732421875	2475.77734375	477.9070434570312	-141.2671966552734	1919.890625	71.0700912475586	-383.068603515625	2411.978271484375	526.760009765625	-133.4935913085938	1817.919799804688	216.2084350585938	-287.1094360351562	2413.340087890625	397.0092468261719	-146.6157684326172	2352.28369140625	448.0396728515625	-141.4279327392578	1882.4931640625	196.0131225585938	-374.1488037109375	2269.873779296875	271.9275817871094	-164.7854614257812	2415.9765625	145.484619140625	-187.3097076416016	2208.987060546875	286.1326293945312	-223.0851135253906	2207.73779296875	256.3936462402344	-252.4746704101562	2192.486328125	265.44482421875	-203.0666198730469	1811.150634765625	210.6429138183594	-341.2127685546875
281	1.4	2339.73291015625	1475.547607421875	-460.5260925292969	2301.15625	1474.497924804688	-154.2498016357422	2302.0078125	1013.795593261719	-437.4925842285156	2309.778564453125	1023.014343261719	-137.7222900390625	2353.92529296875	963.2869262695312	-422.84423828125	1848.412475585938	249.3607482910156	-323.8888549804688	2369.44580078125	978.4365234375	-167.8738098144531	2206.910400390625	910.3584594726562	-430.0701599121094	2252.85302734375	917.7918701171876	-114.7208404541016	2209.393798828125	1054.36279296875	-292.8677368164062	2247.151611328125	652.5028076171875	-435.1097412109375	1960.820434570312	377.2783203125	-405.7044372558594	2168.75830078125	682.4337768554688	-440.8715515136719	2209.12255859375	558.5023193359375	-412.2393188476562	2389.821533203125	161.5037078857422	-132.6961212158203	2018.357299804688	457.5785522460938	-421.8068542480469	2130.9951171875	592.814208984375	-411.9719543457031	2512.0712890625	739.563720703125	-135.5065460205078	1984.052490234375	46.24452590942383	-324.1385803222656	2445.468505859375	702.19287109375	-120.6973419189453	2558.134765625	650.5084838867188	-154.3885955810547	2486.62109375	615.5433349609375	-140.9113616943359	2143.30126953125	535.1053466796875	-414.5896606445312	2520.2451171875	597.8175048828125	-144.0163116455078	2082.2177734375	410.9186706542969	-420.0475463867188	2023.55908203125	329.8505859375	-409.5063781738281	2499.659912109375	478.3227844238281	-141.0116424560547	1925.754272460938	73.91802215576172	-384.767333984375	2433.8671875	523.6701049804688	-132.4721984863281	1834.155883789062	229.1508941650391	-290.7843322753906	2441.728515625	394.27294921875	-146.8143310546875	2378.213134765625	441.8667602539062	-140.7752380371094	1895.366088867188	203.2715454101562	-377.2134399414062	2304.14453125	262.2393188476562	-164.4871978759766	2458.211181640625	144.7817840576172	-187.4619750976562	2243.381103515625	272.58740234375	-223.7399749755859	2244.243408203125	243.3354644775391	-253.04736328125	2228.510009765625	250.252197265625	-204.6326751708984	1826.322998046875	223.5953063964844	-344.5400085449219
